PathFileType	4	(X/Y/Z)	s11c0302.trc
DataRate	CameraRate	NumFrames	NumMarkers	Units	OrigDataRate	OrigDataStartFrame	OrigNumFrames
200	200	7	48	mm	200	0	2000
Frame#	Time	racr			lacr			c7			jug			rlel			rdr			llel			ldr			s2			lic			ric			lasi			rasi			rpsi			lpsi			rgt			lgt			rth1			rth2			rth3			rth4			rlfc			rmfc			rsh1			rsh2			rsh3			rsh4			rlmal			rcal			rtoe			rmt5			lth1			lth2			lth4			lth3			llfc			lmfc			llmal			lcal			lmt5			lsh1			lsh2			lsh3			lsh4			ltoe			SBIKE			LBIKE			RBIKE			
		X1	Y1	Z1	X2	Y2	Z2	X3	Y3	Z3	X4	Y4	Z4	X5	Y5	Z5	X6	Y6	Z6	X7	Y7	Z7	X8	Y8	Z8	X9	Y9	Z9	X10	Y10	Z10	X11	Y11	Z11	X12	Y12	Z12	X13	Y13	Z13	X14	Y14	Z14	X15	Y15	Z15	X16	Y16	Z16	X17	Y17	Z17	X18	Y18	Z18	X19	Y19	Z19	X20	Y20	Z20	X21	Y21	Z21	X22	Y22	Z22	X23	Y23	Z23	X24	Y24	Z24	X25	Y25	Z25	X26	Y26	Z26	X27	Y27	Z27	X28	Y28	Z28	X29	Y29	Z29	X30	Y30	Z30	X31	Y31	Z31	X32	Y32	Z32	X33	Y33	Z33	X34	Y34	Z34	X35	Y35	Z35	X36	Y36	Z36	X37	Y37	Z37	X38	Y38	Z38	X39	Y39	Z39	X40	Y40	Z40	X41	Y41	Z41	X42	Y42	Z42	X43	Y43	Z43	X44	Y44	Z44	X45	Y45	Z45	X46	Y46	Z46	X47	Y47	Z47	X48	Y48	Z48	
0	0.0000	444.813331	1379.793797	-97.437928	440.324178	1416.246502	-421.060047	371.168229	1506.772742	-253.669149	398.022396	1331.409819	-266.346929	576.288752	1149.531382	-48.452168	787.505920	933.331540	-86.108272	537.982473	1131.169505	-479.510833	787.281715	920.259071	-460.082395	-174.683647	1246.526318	-248.022064	37.324353	1259.830012	-440.998650	55.585853	1234.740871	-54.541275	58.870815	1173.067934	-419.816144	73.509095	1164.407723	-88.207179	-123.567569	1317.149010	-192.428163	-132.355755	1318.501228	-285.154823	-10.012770	1092.730839	-36.266762	-50.718218	1128.944169	-463.639936	82.307827	984.712585	-39.363490	159.127950	932.796901	-53.042299	196.203321	855.118071	-70.996183	186.154935	957.505477	-62.177628	257.597457	769.160817	-89.694675	247.704087	752.429849	-215.755192	167.244404	635.058038	-74.867046	136.078134	554.058022	-92.923984	70.509886	496.729634	-92.529717	155.790423	544.554677	-126.402316	-19.548520	395.951940	-103.905933	-87.981659	388.478675	-150.592556	185.066314	302.687193	-146.708971	112.352275	289.931271	-76.788774	70.010170	1035.801500	-483.671707	148.668510	1002.401739	-483.080128	172.282962	1029.130311	-474.983851	201.291473	928.909667	-480.475055	304.488714	833.098345	-458.344590	324.621606	830.019503	-333.977504	242.601426	404.975042	-421.917057	202.764670	343.933011	-382.800185	407.564214	358.416942	-458.835019	281.142123	706.353036	-472.456518	296.999462	622.802595	-456.659301	268.630716	540.297790	-448.589910	328.835067	624.460606	-435.953683	492.005940	412.425054	-392.850608	-215.944366	950.838674	-256.565590	-18.012997	80.860395	-460.710087	-17.941670	80.873285	-62.101733	
1	0.0050	444.567801	1379.527187	-97.375001	440.079332	1416.080641	-420.920860	370.910743	1506.574659	-253.626629	397.693567	1331.244059	-266.181019	576.156716	1149.345567	-48.393379	787.491789	933.305920	-86.088112	537.816800	1131.086545	-479.432797	787.271446	920.251157	-460.060496	-174.829299	1246.307032	-248.002246	37.087693	1259.750665	-441.031725	55.244003	1234.652538	-54.431402	58.709268	1173.003296	-419.865473	73.225051	1164.307000	-88.080610	-123.843197	1316.978501	-192.389374	-132.606972	1318.338555	-285.044521	-10.264278	1092.641901	-36.187926	-50.974425	1128.822575	-463.610493	82.165337	984.631798	-39.275739	159.005057	932.777028	-52.921833	196.139316	855.123500	-70.866679	186.043660	957.499488	-62.000434	257.612452	769.189316	-89.565647	247.836919	752.467986	-215.659990	167.287573	635.062396	-74.811741	136.104875	554.080823	-92.865713	70.516504	496.747613	-92.512412	155.816942	544.585218	-126.331053	-19.544251	395.983860	-103.914584	-87.989644	388.539715	-150.599508	185.097112	302.681744	-146.697327	112.345169	289.962748	-76.793415	69.760907	1035.654684	-483.629935	148.470492	1002.193426	-483.080149	172.057893	1028.996754	-474.954528	201.080554	928.787413	-480.475289	304.377880	833.044828	-458.308928	324.487940	829.983078	-333.876233	242.576818	404.857085	-421.894333	202.767081	343.822218	-382.803871	407.563371	358.377462	-458.824299	281.090989	706.274774	-472.411519	296.768817	623.183186	-457.040445	268.594399	540.220973	-448.599168	328.543532	624.890994	-436.255386	491.976276	412.409212	-392.843359	-215.938616	950.819310	-256.569728	-18.031154	80.949400	-460.667422	-17.870673	80.862152	-62.155169	
2	0.0100	444.261478	1379.281028	-97.392411	439.842175	1415.912871	-420.770104	370.684633	1506.331378	-253.494926	397.423107	1331.073414	-266.048124	575.983948	1149.168452	-48.293193	787.469255	933.310537	-86.093820	537.697856	1131.018295	-479.371054	787.268254	920.232411	-460.013835	-175.045320	1246.119859	-247.947610	36.920162	1259.533007	-440.805333	55.179651	1234.656774	-54.147810	58.478972	1172.768155	-419.646484	72.949949	1164.237255	-87.994327	-124.063195	1316.817137	-192.385800	-132.833252	1318.129096	-284.975768	-10.472160	1092.455978	-36.125413	-51.169676	1128.598547	-463.553086	82.024588	984.526829	-39.158721	158.893276	932.715371	-52.810917	196.080236	855.094870	-70.721433	185.926556	957.477264	-61.855723	257.650238	769.198526	-89.453301	248.036026	752.415596	-215.421404	167.316571	635.082172	-74.730063	136.136167	554.078409	-92.825710	70.532165	496.782938	-92.475490	155.868751	544.624535	-126.279308	-19.535383	396.036895	-103.907531	-87.994872	388.607574	-150.586319	185.102745	302.689857	-146.690445	112.332117	290.005008	-76.787189	69.591017	1035.482101	-483.558413	148.301885	1002.023300	-483.004382	171.884818	1028.779076	-474.929101	200.909628	928.656072	-480.440745	304.308605	832.946823	-458.288054	324.387422	829.930844	-333.791584	242.588092	404.725525	-421.877601	202.779474	343.651030	-382.775523	407.565532	358.337217	-458.814067	281.049279	706.183581	-472.380791	296.729688	623.106010	-457.015253	268.551638	540.110523	-448.592882	328.516858	624.761861	-436.169246	491.948017	412.387370	-392.841215	-215.936602	950.813944	-256.568295	-18.033506	80.940871	-460.659015	-17.871107	80.878423	-62.151669	
3	0.0150	443.993369	1379.063438	-97.376087	439.607165	1415.727228	-420.633024	370.473869	1506.036440	-253.433904	397.095427	1330.920014	-265.939074	575.818764	1148.985800	-48.172190	787.519023	933.230794	-86.004414	537.607321	1130.914500	-479.282657	787.371674	920.655533	-460.642306	-175.255189	1245.931834	-247.892280	36.650980	1259.364214	-440.960118	54.812220	1234.549390	-54.039993	58.406000	1172.662444	-419.743786	72.500416	1164.195226	-87.971531	-124.303945	1316.585181	-192.294017	-131.974277	1316.600392	-286.218634	-10.691721	1092.326387	-36.014747	-51.320705	1128.424222	-463.490344	82.132528	984.713777	-39.550316	158.814992	932.668451	-52.692568	196.047682	855.065006	-70.595652	185.578200	957.334536	-61.961006	257.520983	769.227341	-89.321134	247.880475	752.549844	-215.657329	167.373023	635.075373	-74.654996	136.351901	554.112127	-92.623165	70.533638	496.809521	-92.450474	155.770024	544.414760	-126.164608	-19.555525	396.118193	-103.883211	-87.987011	388.654218	-150.599237	185.067657	302.747018	-146.665543	112.318763	290.043105	-76.776116	69.436304	1035.110215	-483.476664	148.171272	1001.868293	-482.965836	171.718935	1028.673251	-474.893823	200.796315	928.471590	-480.368386	304.269096	832.802374	-458.233577	324.290525	829.843350	-333.718133	242.558972	404.599228	-421.897970	202.769639	343.540993	-382.780963	407.552660	358.294032	-458.823021	281.015753	706.067720	-472.319889	296.910843	622.758655	-456.674111	268.513106	539.959583	-448.560413	328.736714	624.194732	-436.117900	491.919597	412.374343	-392.831981	-215.926526	950.807060	-256.548529	-18.021750	80.942974	-460.659695	-17.886181	80.837334	-62.163083	
4	0.0200	443.822591	1378.580700	-97.265086	439.440600	1415.264144	-420.326185	370.127190	1505.901800	-253.726447	396.760284	1330.410295	-265.828929	575.669677	1148.678069	-47.876760	787.293306	933.080384	-86.025830	537.548439	1130.863596	-479.217706	787.666446	920.962140	-461.009881	-175.421008	1245.755507	-248.037975	36.446226	1259.102178	-441.044937	54.595485	1234.258319	-53.924311	58.234599	1172.436970	-419.713695	72.340487	1163.746117	-87.844545	-124.464092	1316.452576	-192.434217	-132.071308	1316.494049	-286.321560	-10.676643	1092.078788	-36.123291	-51.336188	1128.387842	-463.067442	81.908092	984.512299	-39.355055	158.956100	932.491964	-52.359491	196.238298	854.910466	-70.611779	185.524933	957.061080	-61.802845	257.652653	769.077076	-89.206164	247.938654	752.574642	-216.222787	167.552364	635.011579	-74.544204	136.596923	554.060187	-92.948886	70.695509	496.722406	-92.487657	155.774946	544.542835	-126.125707	-19.382012	396.061629	-103.871022	-87.929352	388.721149	-150.638219	185.126468	302.976455	-146.558157	112.393300	289.995343	-76.727793	69.265442	1035.152638	-483.361587	147.867611	1001.311677	-482.014141	171.663318	1028.472989	-474.748758	200.748411	928.214617	-480.046548	304.210424	832.784868	-458.393474	324.226103	829.702648	-333.673691	242.509647	404.503567	-421.846169	202.763704	343.429289	-382.783718	407.535285	358.349251	-458.892848	280.957126	706.023166	-472.400791	296.922950	622.637833	-456.650613	268.674252	539.729045	-448.301956	328.596866	624.162873	-435.954537	491.905563	412.424863	-392.803883	-216.203308	950.991514	-256.579548	-17.780191	80.918910	-460.916515	-17.751150	80.847617	-62.226690	
5	0.0250	443.540405	1378.348619	-97.304399	439.200966	1415.119953	-420.202752	370.000006	1505.609154	-253.379628	396.521435	1330.260637	-265.763679	575.493366	1148.532597	-47.769350	787.302963	933.084529	-86.027179	537.525803	1130.757125	-479.159400	787.568703	920.772809	-460.797831	-175.586552	1245.549390	-247.989416	36.255509	1258.925031	-440.920728	54.405005	1234.137793	-53.772677	58.046253	1172.257583	-419.601030	72.100922	1163.730201	-87.759401	-124.650423	1316.214315	-192.428717	-132.281649	1316.273242	-286.219096	-10.855923	1091.885800	-36.024380	-51.438657	1128.077041	-463.102760	81.745333	984.407781	-39.248023	158.932039	932.442859	-52.270663	196.238027	854.822941	-70.449135	185.495161	957.023537	-61.723242	257.733075	769.035182	-89.065796	248.154206	752.544639	-215.890069	167.615197	635.020457	-74.439153	136.534531	554.110441	-92.844995	70.686569	496.782673	-92.391495	155.837686	544.526924	-126.055456	-19.384840	396.156122	-103.811254	-87.956963	388.799943	-150.630783	185.120586	302.892498	-146.518257	112.384198	290.037327	-76.705549	69.224115	1034.801366	-483.283962	147.814812	1001.184803	-482.090853	171.646444	1028.173237	-474.376188	200.707775	928.002957	-479.946231	304.177753	832.603750	-458.302980	324.161233	829.622374	-333.660794	242.464561	404.360258	-421.853774	202.761440	343.316830	-382.784119	407.537043	358.263848	-458.864226	280.928448	705.877750	-472.327518	296.852927	622.543644	-456.637450	268.634370	539.612571	-448.339506	328.561287	623.181752	-437.350566	491.847109	412.380378	-392.793281	-216.144138	950.953762	-256.571911	-17.838034	80.888452	-460.892460	-17.808535	80.857711	-62.214329	
6	0.0300	443.345073	1378.101996	-97.315346	439.037291	1414.955154	-420.073452	369.820831	1505.421466	-253.266733	396.316340	1330.073596	-265.706306	575.331112	1148.365192	-47.651418	787.226249	933.047545	-86.059062	537.527459	1130.634383	-479.078037	787.586612	920.704199	-460.701922	-175.709740	1245.316369	-247.986471	36.069288	1258.710075	-441.015871	54.137559	1233.935226	-53.689068	57.954773	1172.079322	-419.643899	71.926257	1163.595925	-87.661295	-124.816747	1316.002611	-192.405303	-132.421300	1316.066695	-286.187434	-10.988823	1091.656152	-35.968107	-51.535290	1127.755557	-463.024381	81.633936	984.305166	-39.154318	158.935750	932.357863	-52.149612	196.282921	854.737910	-70.304710	185.460759	956.861437	-61.606513	257.835865	769.006713	-88.959015	248.299309	752.567376	-215.816258	167.701602	635.035346	-74.342398	136.615186	554.131232	-92.785875	70.756637	496.828730	-92.365421	155.893135	544.550240	-126.006460	-19.357441	396.283884	-103.815332	-87.946318	388.933692	-150.649626	185.114829	302.949355	-146.484693	112.384618	290.116281	-76.695951	69.163255	1034.564444	-483.214475	147.737523	1000.976302	-482.026898	171.586057	1027.949665	-474.359978	200.677096	927.824392	-479.842024	304.135463	832.455363	-458.224304	324.151547	829.518493	-333.562872	242.445602	404.115316	-421.888629	202.762652	343.204714	-382.782467	407.531221	358.195921	-458.862966	280.879097	705.712787	-472.274601	296.801432	622.382391	-456.620653	268.584505	539.472956	-448.346744	328.517150	623.010720	-437.337459	491.799777	412.347484	-392.776008	-216.126418	950.947818	-256.578369	-17.864143	80.893736	-460.909628	-17.799886	80.849027	-62.222999	
